<svg viewBox="0 0 1024 1024" fill="currentColor" version="1.1" xmlns="http://www.w3.org/2000/svg" width="20" height="20" data-v-4811fc9d=""><path d="M922.0608 0a102.4 102.4 0 0 1 102.4 102.4v819.2a102.4 102.4 0 0 1-102.4 102.4h-819.2a102.4 102.4 0 0 1-102.4-102.4V102.4a102.4 102.4 0 0 1 102.4-102.4h819.2z m-19.456 70.656H122.2656a51.2 51.2 0 0 0-50.8416 45.2608l-0.3072 5.9904v780.1856a51.2 51.2 0 0 0 45.2096 50.8928l5.9904 0.3072h780.1856a51.2 51.2 0 0 0 50.8928-45.2096l0.3072-5.9904V121.9072a51.2 51.2 0 0 0-51.2-51.2zM392.7552 360.3968a20.1216 20.1216 0 0 1 5.888 14.2336v301.056a20.1216 20.1216 0 0 1-34.304 14.2848l-150.6304-150.5792a20.1216 20.1216 0 0 1-2.56-25.2928l2.56-3.1744 150.5792-150.528a20.1216 20.1216 0 0 1 28.4672 0z m253.5424-5.888c5.3248 0 10.4448 2.048 14.2336 5.888l150.528 150.528a20.1216 20.1216 0 0 1 0 28.4672l-150.528 150.528a20.1216 20.1216 0 0 1-34.304-14.2336v-301.056c0-11.1104 8.96-20.1216 20.0704-20.1216z"></path></svg>