<svg viewBox="0 0 1024 1024" xmlns="http://www.w3.org/2000/svg" fill="currentColor" class="icon-mobile" width="18" height="20" data-v-4811fc9d=""><path d="M870.4 0a102.4 102.4 0 0 1 102.4 102.4v819.2a102.4 102.4 0 0 1-102.4 102.4H153.6a102.4 102.4 0 0 1-102.4-102.4V102.4a102.4 102.4 0 0 1 102.4-102.4h716.8z m-23.9104 78.1312H177.5104a51.2 51.2 0 0 0-51.2 51.2v765.3376a51.2 51.2 0 0 0 51.2 51.2h668.9792a51.2 51.2 0 0 0 51.2-51.2V129.3312a51.2 51.2 0 0 0-51.2-51.2zM629.76 819.2a35.84 35.84 0 0 1 0 71.68H394.24a35.84 35.84 0 0 1 0-71.68h235.52z"></path></svg>