<svg viewBox="0 0 1024 1024" xmlns="http://www.w3.org/2000/svg" fill="currentColor" width="20" height="20" data-v-4811fc9d=""><path d="M146.8928 79.2576c-39.3728 0-71.424 33.4848-71.424 74.8032v558.592c0 41.2672 31.9488 74.8544 71.424 74.8544H877.056c39.3728 0 71.424-33.4848 71.424-74.8544V153.9584c0-41.216-31.9488-74.8544-71.424-74.8544H146.944v0.1536z m0-79.2576H877.056C958.2592 0 1024 68.864 1024 153.9584v558.4896c0 85.1456-65.7408 154.0096-146.8928 154.0096H146.944C65.7408 866.4576 0 797.5936 0 712.4992V154.0096C0 69.0176 65.8432 0 146.8928 0z m80.0256 1024c-20.7872-0.2048-37.4784-17.8176-37.2736-39.424 0-21.6064 16.7424-39.3216 37.2736-39.3216h570.1632c20.6848 0 37.2736 17.7152 37.2736 39.3728 0 21.6576-16.5888 39.3728-37.1712 39.3728H226.9184z"></path></svg>